<?xml version="1.0" encoding="UTF-8" standalone="no"?>
<!-- Created with Inkscape (http://www.inkscape.org/) -->

<svg
   width="211.66667mm"
   height="211.66667mm"
   viewBox="0 0 211.66667 211.66667"
   version="1.1"
   id="svg1"
   xml:space="preserve"
   xmlns="http://www.w3.org/2000/svg"
   xmlns:svg="http://www.w3.org/2000/svg"><defs
     id="defs1" /><g
     id="layer1"
     transform="translate(303.91195,-427.6759)"><g
       style="fill:#212178"
       id="g13"
       transform="matrix(14.111111,0,0,14.111111,-303.91196,427.67589)"><path
         fill-rule="evenodd"
         clip-rule="evenodd"
         d="M 0,7.5 C 0,3.35786 3.35786,0 7.5,0 11.6421,0 15,3.35786 15,7.5 c 0,2.587 -1.3098,4.8681 -3.3025,6.2163 L 4.90687,4.20942 C 4.78053,4.03255 4.5544,3.95756 4.34741,4.02389 4.14042,4.09022 4,4.28268 4,4.50004 V 12 H 5 V 6.06027 l 5.8299,8.16183 C 9.82661,14.7201 8.696,15 7.5,15 3.35786,15 0,11.6421 0,7.5 Z M 10,10 V 4 h 1 v 6 z"
         fill="#000000"
         id="path1"
         style="fill:#212178" /></g></g></svg>
